<svg xmlns="http://www.w3.org/2000/svg" width="24" height="24" viewBox="0 0 1000 1000"><path fill="black" transform="translate(0 850) scale(1 -1)" d="M615 746V704Q615 674 593.5 652.5Q572 631 542 631Q537 631 534.0 628.0Q531 625 531 621V569H606Q670 569 696 568Q740 567 768 564Q802 560 827 551Q854 541 876 524Q891 511 903 496Q920 475 930 448Q939 423 943 389Q946 360 947 317Q948 290 948 227V223Q948 160 947 133Q946 90 943 61Q939 27 930 3Q920 -25 903 -46Q891 -62 876 -74Q854 -91 827 -101Q802 -110 768 -114Q740 -117 696 -118Q670 -119 606 -119H394Q330 -119 304 -118Q260 -117 232 -114Q198 -110 173 -101Q146 -91 124 -74Q109 -62 97 -46Q80 -25 70 3Q61 27 57 61Q54 90 53 133Q52 160 52 223V227Q52 290 53 317Q54 360 57 389Q61 423 70 448Q80 475 97 496Q109 511 124 524Q146 541 173 551Q198 560 232 564Q260 567 304 568Q330 569 394 569H469V621Q469 651 490.0 672.5Q511 694 542 694Q546 694 549.0 697.0Q552 700 552 704V746Q552 759 561.0 768.0Q570 777 583.0 777.0Q596 777 605.5 768.0Q615 759 615 746ZM396 506Q332 506 306 506Q265 505 240 502Q189 496 164 476Q154 467 145 457Q125 432 119 381Q116 356 115 315Q115 289 115.0 225.0Q115 161 115 135Q116 94 119 69Q125 18 145 -7Q154 -17 164 -25Q177 -36 194.5 -42.0Q212 -48 238.5 -51.5Q265 -55 306 -56Q332 -56 396 -56H604Q668 -56 694 -56Q735 -55 761.5 -51.5Q788 -48 805.5 -42.0Q823 -36 836 -25Q846 -17 855 -7Q865 6 871.5 24.0Q878 42 881.0 68.0Q884 94 885 135Q885 161 885.0 225.0Q885 289 885 315Q884 356 881 381Q875 432 855 457Q846 467 836 476Q811 496 760 502Q735 505 694 506Q668 506 604 506ZM292 152H708Q720 151 728.0 142.0Q736 133 736.0 121.0Q736 109 728.0 100.0Q720 91 708 90H292Q280 91 272.0 100.0Q264 109 264.0 121.0Q264 133 272.0 142.0Q280 151 292 152ZM260 329Q260 342 269.5 351.0Q279 360 292 360H333Q345 359 353.0 350.0Q361 341 361.0 329.0Q361 317 353.0 308.0Q345 299 333 298H292Q279 298 269.5 307.0Q260 316 260 329ZM479 360H521Q533 359 541.0 350.0Q549 341 549.0 329.0Q549 317 541.0 308.0Q533 299 521 298H479Q467 299 459.0 308.0Q451 317 451.0 329.0Q451 341 459.0 350.0Q467 359 479 360ZM635 329Q635 342 644.5 351.0Q654 360 667 360H708Q720 359 728.0 350.0Q736 341 736.0 329.0Q736 317 728.0 308.0Q720 299 708 298H667Q654 298 644.5 307.0Q635 316 635 329Z"/></svg>
